<svg width="80" height="80" viewBox="0 0 80 80" fill="none" xmlns="http://www.w3.org/2000/svg">
<g clip-path="url(#clip0_1_146)">
<g clip-path="url(#clip1_1_146)">
<path d="M0.906616 74.6838L1.94365 77.0181L39.1567 61.5879L45.6398 62.366L47.9734 69.4973L44.8617 72.4799C43.6948 73.517 43.3061 75.2023 43.9544 76.7585L45.251 80L66.7743 71.572L65.6075 68.4603C65.089 66.9041 63.6626 65.9969 61.9772 65.9969H57.698L55.3644 60.421L61.0693 57.5689C62.8845 56.661 63.6626 54.5863 63.0143 52.7711L55.6239 32.9332C54.8458 30.8585 52.6414 29.9506 50.5666 30.5989C50.5666 30.5989 50.4375 30.5989 50.4375 30.7287L44.9915 33.0624L44.2134 31.1175L47.196 27.617C49.27 25.2827 50.5666 22.4305 50.956 19.3188L54.7161 14.7806C57.1795 11.9278 56.661 7.64927 53.8082 5.1852C53.2897 4.79647 52.7711 4.40774 52.2526 4.14816C50.8262 3.49985 49.3998 3.37007 47.8443 3.75943L47.4549 2.59197C46.8066 0.517898 44.4729 -0.519772 42.528 0.258322L15.1694 10.1127C13.0947 10.8908 12.0576 13.0947 12.8357 15.0396V15.1694L13.484 16.8547C10.1127 18.4109 8.55651 22.3007 9.72333 25.6721C10.6312 28.2653 12.9649 30.0804 15.6879 30.4692L21.7822 31.1175C24.2457 32.9332 27.2276 34.1001 30.2102 34.359L34.4888 34.7484L35.2669 36.6933C34.359 37.2118 33.7107 38.1197 33.4517 39.2865L32.5438 43.6949L0.906616 56.5312L1.8145 58.9946L19.9671 51.7341L24.3754 64.9592L0.906616 74.6838ZM63.0143 69.2384L63.2738 70.0159L46.6768 76.6287L46.2881 75.8506C46.1583 75.3321 46.2881 74.8136 46.5476 74.4248L50.956 70.2754L56.5312 68.4603H61.7176C62.366 68.4603 62.7553 68.7192 63.0143 69.2384ZM54.8458 66.126L50.1779 67.6822L48.4926 62.7553C49.27 62.8845 49.9183 62.7553 50.5666 62.366L52.7711 61.3289L54.8458 66.126ZM51.3447 32.6736C51.993 32.4141 52.7711 32.6736 53.0307 33.322L54.0678 36.045L47.7145 38.1197L48.4926 40.5831L54.8458 38.5084L56.4014 42.6578L50.3077 44.7319L51.0858 47.196L57.3093 45.1213L58.8655 49.27L52.9009 51.215L53.679 53.679L59.7727 51.6043L60.421 53.2897C60.6806 53.938 60.421 54.5863 59.7727 54.8459L49.5296 59.9025C49.27 60.0323 49.0111 60.0323 48.7515 60.0323L39.9348 58.9946L35.1371 44.6027L36.045 39.805C36.1747 39.4163 36.4337 39.0269 36.8231 38.8971L51.3447 32.6736ZM51.215 6.48181C53.2897 7.38969 54.3273 9.85313 53.4194 12.0576C53.2897 12.4464 53.0307 12.7059 52.7711 13.0947L51.215 15.0396C51.0858 13.743 50.8262 12.5761 50.4375 11.2795L48.7515 6.22287C49.6594 6.09308 50.4375 6.22287 51.215 6.48181ZM12.3166 25.0238C11.5391 22.8193 12.4463 20.4856 14.5211 19.4479L16.3362 23.8569C16.9845 25.4125 17.8924 26.9687 18.9294 28.2653L16.2064 28.0057C14.3913 27.8759 12.8357 26.7091 12.3166 25.0238ZM30.7287 31.8956C25.4125 31.377 20.7445 28.0057 18.7996 22.9491L15.4289 14.3913C15.1694 13.743 15.4289 12.9649 16.0772 12.7059L43.4353 2.85155C43.8246 2.72176 44.0836 2.72176 44.4729 2.85155C44.7319 2.98134 44.9915 3.24028 45.1213 3.62964L47.9734 12.1874C49.5296 16.9845 48.4926 22.171 45.251 25.931L41.2314 30.5989L42.3982 33.7107L37.7303 35.6556L36.4337 32.4141L30.7287 31.8956ZM22.4305 50.6964L25.4125 49.5296L28.654 59.384L31.1174 58.6059L27.7468 48.4926L32.9332 46.4179L37.3416 59.5138L26.8389 63.9221L22.4305 50.6964Z" fill="#FFBE00"/>
<path d="M64.9591 22.6895V23.9861H67.5524V22.6895C67.5524 19.0592 70.4052 16.2064 74.0354 16.2064V13.6132C70.4052 13.6132 67.5524 10.761 67.5524 7.13011V5.8335H64.9591V7.13011C64.9591 10.761 62.107 13.6132 58.4761 13.6132V16.2064C62.107 16.2064 64.9591 19.0592 64.9591 22.6895ZM66.2558 11.798C67.0338 13.0947 68.0709 14.1323 69.3675 14.9098C68.0709 15.6879 67.0338 16.7256 66.2558 18.0222C65.4777 16.7256 64.4406 15.6879 63.144 14.9098C64.4406 14.1323 65.4777 13.0947 66.2558 11.798Z" fill="#FFBE00"/>
<path d="M7.90824 48.6217V49.9183H10.5015V48.6217C10.5015 44.9915 13.3543 42.1387 16.9845 42.1387V39.5454C13.3543 39.5454 10.5015 36.6933 10.5015 33.0624V31.7657H7.90824V33.0624C7.90824 36.6933 5.05607 39.5454 1.42517 39.5454V42.1387C5.05607 42.1387 7.90824 44.9915 7.90824 48.6217ZM9.20485 37.7303C9.98294 39.0269 11.02 40.0646 12.3166 40.842C11.02 41.6201 9.98294 42.6578 9.20485 43.9544C8.42675 42.6578 7.38972 41.6201 6.0931 40.842C7.38972 40.0646 8.42675 39.0269 9.20485 37.7303Z" fill="#FFBE00"/>
<path d="M72.7389 33.0624V31.7657H70.1457V33.0624C70.1457 36.6933 67.2935 39.5454 63.6626 39.5454V42.1387C67.2935 42.1387 70.1457 44.9915 70.1457 48.6217V49.9183H72.7389V48.6217C72.7389 44.9915 75.5917 42.1387 79.222 42.1387V39.5454C75.5917 39.5454 72.7389 36.6933 72.7389 33.0624ZM71.4423 43.9544C70.6642 42.6578 69.6271 41.6201 68.3305 40.842C69.6271 40.0646 70.6642 39.0269 71.4423 37.7303C72.2204 39.0269 73.2574 40.0646 74.554 40.842C73.2574 41.6201 72.2204 42.6578 71.4423 43.9544Z" fill="#FFBE00"/>
<path d="M39.4163 23.0788L41.2314 24.894C48.3628 17.7626 41.75 6.87118 41.3612 6.48181L39.1567 7.90821C39.2865 7.90821 45.1213 17.3739 39.4163 23.0788Z" fill="#FFBE00"/>
</g>
</g>
<defs>
<clipPath id="clip0_1_146">
<rect width="80" height="80" fill="white"/>
</clipPath>
<clipPath id="clip1_1_146">
<rect width="80" height="80" fill="white"/>
</clipPath>
</defs>
</svg>
